Patient4_TMGait_0pt5_02_right_39_EMG.mot
version=1
nRows=37
nColumns=33
inDegrees=no
endheader
time	1LAddLong	2LGlutMax	3LGlutMed	4LIliopsoas	5LSemiMemb	6LBicFemLong	7LRecFem	8LVastMed	9LVastLat	10LGasMed	11LTibAnt	12lTibPost	13LPeroneusLong	14LSol	15LExtDigLong	16LFlexDigLong	17RAddLong	18RGlutMax	19RGlutMed	20RIliopsoas	21RSemiMemb	22RBicFemLong	23RRecFem	24RVastMed	25RVastLat	26RGasMed	27RTibAnt	28RTibPost	29RPeroneusLong	30RSol	31RExtDigLong	32RFlexDigLong
51.415	0.001831	-0.25589	0.026245	-0.008087	-0.003357	0.011902	-0.099182	0.015106	0.17731	-0.06073	0.28122	0.011292	-0.11017	0.050354	0.12009	-0.01236	-0.08255	-0.95383	0.073242	0.067291	-0.91766	0.18036	0.22034	0.079803	-0.16296	0.028992	0.033264	-0.16647	-0.24551	-0.14114	0.001221	0.00412
51.416	-0.005798	-0.33615	0.025635	-0.007629	-0.006866	0.005798	-0.10452	0.003815	0.19638	-0.043335	-0.006714	0.007324	-0.097504	0.14648	0.3566	-0.003052	-0.060577	-0.93246	0.81711	0.012665	0.336	0.11398	0.23285	0.076752	-0.098114	-0.069427	0.040741	-0.044403	-0.3865	-0.24918	0.000305	-0.003815
51.417	-0.006104	-0.39581	0.019379	0.021057	-0.015564	-0.012512	-0.092621	0.001678	0.20187	-0.0177	-0.080872	0.009918	-0.17029	0.090942	0.26672	-0.015106	-0.061646	-1.0475	0.47531	0.034027	0.73242	0.066986	0.11292	0.1358	-0.16785	0.075989	0.10895	0.33646	-0.43411	-0.26581	-0.00061	0.002441
51.418	-0.009308	-0.37018	0.007172	0.005341	0.000763	-0.031128	-0.12009	-0.000153	0.18814	-0.02121	0.16693	0.007782	-0.15533	0.15854	-0.26428	-0.02533	-0.071106	-1.0876	-0.86029	-0.011902	0.38177	-0.01358	0.079346	0.1178	-0.26901	0.067749	0.12848	0.082245	-0.56702	-0.34821	0.000458	-0.001678
51.419	-0.000153	-0.37445	-0.006866	-0.013733	-0.009613	-0.024719	-0.19302	-0.00824	0.16342	-0.041504	0.11505	-0.005798	-0.095673	0.15167	-0.099792	-0.012817	-0.057983	-0.94757	-0.61096	-0.15671	0.21164	-0.14984	0.083008	0.09491	-0.24246	-0.033875	0.13214	0.006104	-0.33798	-0.42068	-0.000458	0.003052
51.42	-0.005951	-0.36713	0.004425	-0.014343	-0.016785	-0.034943	-0.13931	-0.00061	0.16083	-0.042877	-0.14999	-0.01358	0.036316	0.1413	0.050964	-0.006714	-0.040436	-0.94589	-0.63278	-0.056763	0.29648	-0.233	0.1181	0.050201	-0.20187	-0.06012	0.083771	-0.015106	-0.036011	-0.078583	-0.001526	-0.011902
51.421	-0.014343	-0.41351	0.012512	-0.001373	-0.010986	-0.04364	-0.070038	0	0.15732	-0.06485	-0.18463	-0.023193	0.1329	0.13336	-0.10864	-0.004883	-0.017242	-0.92804	-0.25879	0.061798	-0.16617	-0.24719	0.19486	-0.024109	-0.1474	-0.096436	0.054626	0.046844	-0.042267	0.21332	-0.001221	-0.00946
51.422	-0.007172	-0.42816	0.016479	0.019531	-0.014343	-0.044708	-0.058289	-0.002899	0.15274	-0.072174	-0.11871	-0.01236	0.034943	0.041046	-0.35538	-0.000153	-0.028687	-1.008	-0.57754	0.18723	-0.58075	-0.058899	0.26611	-0.042267	-0.039825	-0.01297	0.007629	-0.061188	-0.00412	0.068207	-0.003204	-0.002747
51.423	-0.011139	-0.44067	0.005035	0.01709	-0.011139	-0.033569	-0.052948	-0.001678	0.13794	-0.035095	-0.062561	-0.016632	-0.083313	-0.029755	0.21393	-0.005341	-0.038452	-1.1641	-0.83542	0.19547	-0.39734	0.12482	0.25772	-0.15625	0.015106	-0.023651	0.0354	0.001221	-0.13992	0.055847	0.003052	-0.009918
51.424	-0.002289	-0.42206	-0.008698	0.02121	-0.011292	-0.037384	-0.05249	0.004425	0.12924	0.022583	-0.004272	-0.013275	-0.15045	-0.009308	0.7663	-0.011749	-0.086823	-1.3391	0.51331	0.03891	0.10681	0.12726	0.26947	0.036469	0.22492	-0.052185	0.071106	0.042267	0.18524	-0.023499	0.001221	-0.004578
51.425	0.001984	-0.44846	-0.020599	-0.000305	-0.013123	-0.037079	-0.037537	-0.000458	0.12024	-0.006409	-0.070038	-0.001984	-0.087738	0.034027	-0.55237	-0.016632	-0.059052	-1.6353	0.298	-0.011292	0.37705	-0.015411	0.33356	0.14984	0.25269	-0.028076	0.071259	-0.050964	0.19012	-0.14801	0.000763	-0.014954
51.426	-0.00824	-0.43503	0.007019	-0.02182	-0.00824	-0.014648	-0.066833	-0.002594	0.12299	-0.043182	-0.16129	0.000763	-0.015869	0.14435	-0.47577	-0.03067	-0.007782	-1.9006	-0.33478	-0.031433	0.24323	-0.006561	0.39719	0.030975	0.14435	0.072632	0.062256	-0.071411	0.17624	-0.80994	-0.002136	-0.015411
51.427	-0.000763	-0.40054	0.02594	-0.026245	-0.005341	-0.014343	-0.17044	-0.003204	0.11292	-0.02533	-0.12573	-0.002899	-0.03479	0.15182	-0.31906	-0.053101	0.005493	-1.8848	-0.35034	-0.078583	0.32898	-0.005798	0.33463	0.00061	0.085144	0.097961	0.051117	0.002594	0.1976	-1.3997	0.002136	-0.014343
51.428	0	-0.41306	0.014954	-0.006104	-0.006256	0.009766	-0.29053	0.002594	0.10391	-0.031738	-0.08667	0.001373	-0.04776	0.14511	-0.35858	-0.057068	-0.000305	-1.7018	-0.16251	-0.058899	0.053711	-0.057373	0.30991	-0.049438	0.037689	0.07019	0.058441	0.029449	0.18814	-0.57678	-0.000458	-0.010529
51.429	0.001984	-0.40527	0.007935	-0.003204	-0.005493	0.04303	-0.32349	0.016174	0.12039	-0.001526	-0.16953	0.000458	-0.069733	0.23789	-0.44998	-0.086365	-0.038147	-1.5215	-0.51666	-0.013733	-0.33524	0.007629	0.24857	-0.03006	0.025635	0.067291	0.0354	-0.007629	0.20157	0.008087	-0.000153	-0.011749
51.43	-0.003204	-0.42435	-0.013428	-0.000305	-0.011902	0.023804	-0.2948	0.007782	0.11154	0.006409	-0.31479	-0.001221	-0.053253	0.21698	-0.34012	-0.012817	-0.028839	-1.4026	-0.49164	0.003052	-0.58441	-0.030823	0.2153	0.062561	0.005493	0.009003	0.045929	-0.026245	0.12283	0.48202	-0.004272	-0.005798
51.431	-0.008087	-0.39719	-0.019836	0.007477	-0.013885	0.03479	-0.19684	0.015106	0.10254	0.0177	-0.21072	0.005493	-0.069733	0.061188	-0.18814	-0.032196	0.018921	-1.3228	-0.23499	0.024719	-0.11704	-0.44647	0.16296	0.022125	-0.010071	-0.014038	0.04715	-0.005951	-0.050201	0.79804	0.003357	-0.002441
51.432	-0.013275	-0.3952	-0.032043	-0.002899	-0.007782	0.041656	-0.14038	0.008698	0.072937	0.039368	-0.088806	-0.0177	-0.112	-0.10956	0.1239	-0.065765	0.060425	-1.2897	0.085449	0.015411	0.10452	-0.6456	0.20218	-0.06073	-0.044403	-0.036163	0.071106	-0.005341	-0.023193	0.4335	0.002136	-0.00473
51.433	-0.011597	-0.30868	-0.030518	-0.011292	-0.006409	0.023804	-0.13031	0.013123	0.061646	0.000763	-0.25864	-0.040588	0.030975	-0.10147	0.28046	-0.065155	0.096741	-1.1621	0.5777	-0.032959	0.21515	-0.63294	0.22385	-0.095673	-0.040283	0.043182	0.071259	-0.027161	0.052032	0.17563	-0.001373	0.006561
51.434	-0.013275	-0.31555	-0.036774	-0.02655	-0.007172	0.026703	-0.13779	0.017395	0.071411	0.015411	-0.28915	-0.092926	0.062256	-0.042419	-0.042114	-0.030975	0.10651	-1.041	0.8374	-0.032349	0.18768	-0.78888	0.22842	-0.13519	-0.050354	0.056152	0.075989	-0.030212	-0.075378	0.26886	-0.002441	0.005951
51.435	-0.019836	-0.3125	-0.053406	-0.03418	-0.00824	0.010071	-0.13184	0.01709	0.064392	0.053101	-0.16449	-0.0914	-0.051575	0.035248	-0.014496	0.00061	0.12543	-0.94086	0.58182	-0.025482	0.13962	-0.93964	0.14404	-0.14267	-0.005493	-0.010834	0.062866	-0.031738	0.046539	0.088806	-0.00412	0.006561
51.436	-0.013733	-0.25757	-0.047913	-0.014343	-0.004425	0.012207	-0.13504	0.013885	0.080414	0.074921	-0.092926	-0.079498	-0.10407	0.032501	-0.21622	0.048981	0.056152	-0.68115	0.46967	0.021057	-0.26627	-0.71747	0.057373	-0.21118	0.011444	-0.13351	0.02594	-0.10757	0.1973	-0.031433	-0.003815	0.00473
51.437	-0.020294	-0.21805	-0.029755	-0.006409	-0.00946	-0.000916	-0.10941	0.012512	0.075531	0.044708	-0.063171	-0.079346	-0.049896	0.028534	-0.38834	0.084534	-0.065308	-0.51376	0.24048	0.019836	-0.55771	-0.55023	0.036926	-0.1239	0.028992	-0.14252	0.001221	-0.19302	-0.004425	0.011597	-0.001068	0.005798
51.438	-0.014801	-0.17044	-0.05249	0.032043	-0.01297	-0.001984	-0.051422	0.019684	0.072632	0.040283	0.22858	-0.061798	-0.081177	-0.053101	0.13107	0.088043	-0.10727	-0.31891	-0.13473	0.06485	-0.73776	-0.2124	0.036621	0.029449	0.022278	-0.065613	0.019836	-0.13886	-0.038147	0.036011	-0.002289	0.001221
51.439	-0.013733	-0.1265	-0.037537	0.055389	-0.002289	-0.008545	0.005035	0.020752	0.080261	0.061188	0.1152	-0.05661	-0.12268	-0.12466	0.25894	0.10986	-0.1416	-0.14114	-0.89996	0.016785	-0.42435	-0.027161	0.009766	0.12039	-0.008392	0.034332	0.019989	0.13001	0.08255	-0.19699	-0.002289	-0.000305
51.44	-0.017548	-0.077667	-0.056152	0.040131	-0.014038	-0.004578	0.019379	0.016174	0.080109	0.037537	-0.061951	-0.047455	-0.11292	-0.19165	-0.14175	0.11368	-0.13504	0.28366	-1.082	0.008087	0.42206	-0.17364	0.057831	0.24216	-0.001984	0.087738	0.067444	0.24429	-0.037231	0.30945	0.000153	-0.007935
51.441	-0.022888	-0.039368	-0.042114	0.013275	0.000458	-0.018616	0.028229	0.0177	0.093079	0.044098	0.099335	-0.024567	-0.089874	-0.19348	-0.3215	0.10834	-0.072937	0.4628	0.18982	-0.1001	0.42267	-0.27924	0.12573	0.18692	0.00351	0.015259	0.060883	-0.32791	-0.13001	0.57358	-0.001526	-0.00473
51.442	-0.021515	-0.003815	-0.026398	-0.034485	0.001678	-0.00946	-0.005798	0.009613	0.10269	0.040283	0.22797	-0.011749	-0.1062	-0.098114	-0.16724	0.10162	-0.031128	0.56381	0.53757	-0.094604	0.083466	-0.36102	0.095673	0.14404	0.024567	0.023956	0.00412	-0.000916	-0.36819	0.32501	-0.002747	0.001221
51.443	-0.021667	-0.014496	-0.055237	-0.053711	0.001373	-0.018616	-0.02121	0.000153	0.11475	0.06134	0.081787	-0.00412	-0.11932	-0.063934	-0.037994	0.093842	-0.006256	0.58807	0.024261	-0.046234	-0.12314	-0.46356	0.099182	0.070496	-0.076141	0.042725	0.009308	0.23926	-0.38376	0.22705	-0.001984	0.002594
51.444	-0.012665	-0.046234	-0.057526	0.007172	0.004272	-0.025024	0.012512	-0.010071	0.15732	0.057068	0.22614	0.009766	-0.11185	-0.18494	0.15488	0.10162	-0.001221	0.57053	0.10254	0.080872	0.003967	-0.65369	-0.14313	0.042877	-0.121	-0.00885	0	0.22537	0.037231	-0.15671	-0.00061	-0.006409
51.445	0.007019	0.000458	-0.065765	0.02182	-0.007019	-0.019836	0.094147	-0.005341	0.14801	0.055389	0.063019	0.00473	-0.10437	-0.20325	0.29511	0.090027	0.030518	0.63095	-0.15595	0.13702	0.26566	-0.79147	-0.28061	0.036926	-0.084229	-0.095215	-0.003662	0.061951	0.086517	0.016174	0	-0.015259
51.446	0.040894	0.012817	-0.10819	-0.001831	0.001373	-0.015564	0.112	-0.001678	0.13351	0.074158	0.1178	0.019989	-0.18097	-0.15228	0.39398	0.070343	0.090179	0.62286	-0.76233	0.1091	0.29739	-0.85266	-0.027466	-0.060425	-0.07431	-0.080566	-0.009613	-0.000763	0.13123	0.18417	0.000458	-0.008698
51.447	0.02243	0.006561	-0.092316	0.009155	0.007019	-0.011292	0.063477	0.006104	0.13687	0.072784	0.12238	0.012207	-0.18173	-0.083618	0.61951	0.072632	0.092773	0.61371	-0.38528	-0.005035	-0.23041	-0.7251	-0.028839	-0.085449	-0.040436	-0.075989	-0.019989	0.04715	-0.024414	-0.088196	0.001678	-0.008545
51.448	-0.019226	0.067139	-0.06012	0.01297	-0.009155	-0.013885	0.026855	0.007172	0.14145	0.055389	-0.053253	0.029907	-0.11139	0.023346	0.63126	0.067444	0.024567	0.6247	0.29175	-0.2124	0.045319	-0.70587	-0.083618	-0.007172	0.005646	-0.16846	-0.017395	0.072784	-0.16769	-0.15289	-0.000153	-0.002594
51.449	0.009918	0.069733	-0.054321	-0.016022	-0.002747	-0.008392	0.023193	0.007172	0.15366	0.055847	-0.19012	0.032806	-0.09491	0.07431	0.38116	0.047455	-0.061493	0.58868	0.36362	-0.13779	0.24674	-0.4895	-0.087433	0.12405	0.051727	-0.08606	-0.000763	0.034943	-0.036163	-0.11185	-0.000305	-0.016022
51.45	-0.004578	0.095062	-0.048828	-0.020142	-0.000763	-0.023499	0.029755	0.00473	0.14862	0.096741	-0.12054	0.008087	-0.16953	0.084991	0.14435	0.036163	-0.065918	0.67642	-0.3389	-0.00885	0.02533	0.026703	0.015869	0.1474	0.074463	-0.006256	0.00885	-0.017242	0.17059	-0.26855	0.000153	-0.009918
51.451	-0.010376	0.13275	-0.051117	0.003357	-0.005341	-0.016174	0.04303	-0.005341	0.14862	0.088806	0.056763	-0.80307	-0.15274	0.121	-0.3949	0.034943	-0.056763	0.94193	-0.62912	0.039825	0.097961	0.090179	0.12756	0.097809	0.050964	0.088043	0.037689	-0.059204	0.53055	-0.36606	0.000458	-0.018311
